<svg xmlns="http://www.w3.org/2000/svg" width="26" height="26" viewBox="0 0 24 24">
    <path
        d="M20.2 9h-.8c-.3 0-.5.1-.7.3l-.5.5-1.6-2c-.4-.5-1-.8-1.6-.8H9c-.6 0-1.2.3-1.6.8l-1.6 2-.5-.5c-.2-.2-.4-.3-.7-.3h-.8c-.5 0-.8.3-.8.8 0 .4.3.8.8.8h1.4l-.7.9c-.3.3-.5.7-.5 1.2V17c0 .6.4 1 1 1h1c.6 0 1-.4 1-1v-1h10v1c0 .6.4 1 1 1h1c.6 0 1-.4 1-1v-4.3c0-.5-.2-.9-.4-1.2l-.7-.9h1.4c.4 0 .8-.3.8-.8-.1-.5-.4-.8-.9-.8zm-12-.6c.2-.3.5-.4.8-.4h6c.3 0 .6.1.8.4l1.7 2.2H6.4zM6 14c-.6 0-1-.4-1-1v-.3c0-.2.1-.4.2-.6l.1-.1h1.1c.4 0 .7.2.9.6L8 14zm9 .1c-.2.3-.5.5-.9.6H9.9c-.4 0-.7-.2-.9-.6L8 12h8zm4-1.4v.3c0 .6-.4 1-1 1h-2l.7-1.4c.2-.3.5-.6.9-.6h1.1l.1.1c.1.2.2.4.2.6z">
    </path>
    <path d="M12 14.3a1 1 0 1 0 0-2 1 1 0 0 0 0 2z"></path>
</svg>