<svg id="alternative-fuel_svg__icon-alternative-fuel" xmlns="http://www.w3.org/2000/svg" viewBox="0 0 434.6 85"
    class="dh-io-vmos_XyRP-">
    <path
        d="M47.2 42.5h.1c.1 0 .3-.1.4-.2.1-.1.3-.4.7-.9L56 30.5c.4-.6.9-1.2 1.5-1.8.6-.6 1.4-1 2.4-1.1.8-.2 1.7-.1 2.5.1.8.3 1.5.7 2.1 1.3.8.8 1.2 1.5 1.3 2.3.1.8.2 1.6.2 2.3v23.1h-4.4V33.6v-1.2c0-.2-.1-.3-.2-.4-.1-.1-.2-.1-.3-.2h-.3c-.1 0-.3.1-.4.2-.1.1-.3.4-.7 1l-7.6 10.9c-.6.9-1.3 1.6-2 2.2-.7.6-1.6.8-2.8.8-1.1 0-2.1-.3-2.8-.8-.7-.6-1.4-1.3-2-2.2L34.9 33c-.4-.5-.6-.9-.7-1-.1-.1-.2-.2-.4-.2-.3 0-.5.1-.7.2-.1.1-.2.2-.2.4v24.3h-4.4V33.6c0-1.4.2-2.6.7-3.7.5-1 1.5-1.8 2.9-2.3.8-.3 1.7-.3 2.5-.1 1.1.2 1.9.6 2.5 1.1.6.6 1.1 1.2 1.5 1.8l7.6 10.9c.4.5.6.8.7.9.1.1.2.2.4.2-.2.1-.1.1-.1.1zM75.6 42.5c0 1.4.3 2.6.8 3.8.6 1.2 1.3 2.2 2.2 3.2.8.8 2.1 1.5 3.7 2.1 1.7.5 3.8.8 6.4.8h15.1v4.4H88.2c-2.7 0-5.2-.4-7.4-1.1-2.2-.7-4-1.8-5.3-3.1-1.5-1.4-2.6-2.9-3.3-4.5-.7-1.5-1.1-3.4-1.1-5.5s.4-4 1.1-5.5c.7-1.5 1.8-3 3.3-4.5 1.3-1.3 3.1-2.3 5.3-3.1 2.2-.7 4.7-1.1 7.4-1.1h15.4v4.4H88.8c-2.6 0-4.7.3-6.4.8-1.6.5-2.9 1.2-3.7 2.1-.9.9-1.7 2-2.2 3.1-.7 1.1-.9 2.4-.9 3.7zm26.1 2.2h-22v-4.4h22.1v4.4zM140.4 50.5v6.2H136v-6.2-1.7c0-.5-.1-.9-.1-1.2l-.3-.9c-.2-.3-.4-.5-.6-.8-.3-.3-.5-.5-.8-.6-.3-.2-.6-.3-.9-.3-.3-.1-.8-.1-1.2-.1h-14.7v-4.4h13.3c.5 0 .9-.1 1.2-.1.4-.1.7-.2.9-.3.3-.2.5-.4.8-.6.7-.7 1.1-1.6 1.1-2.7 0-1-.4-1.9-1.1-2.7-.3-.3-.5-.5-.8-.6l-.9-.3c-.3-.1-.8-.1-1.2-.1h-16.8V57h-4.4V28.7H131c.7 0 1.3.1 2 .3.7.1 1.3.4 1.9.7.6.3 1.2.8 1.8 1.4.8.8 1.3 1.7 1.8 2.7.4 1 .6 2 .6 3.1 0 2-.7 3.8-2 5.4.8.6 1.4 1.1 1.8 1.8.4.6.8 1.3 1 2 .2.7.4 1.5.4 2.3.1.4.1 1.3.1 2.1zM148.6 42.5c0 1.4.3 2.6.8 3.8.6 1.2 1.3 2.2 2.2 3.2.8.8 2.1 1.5 3.7 2.1 1.7.5 3.8.8 6.4.8h14.1v4.4h-14.6c-2.7 0-5.2-.4-7.4-1.1-2.2-.7-4-1.8-5.3-3.1-1.5-1.4-2.6-2.9-3.3-4.5-.7-1.5-1.1-3.4-1.1-5.5s.4-4 1.1-5.5c.7-1.5 1.8-3 3.3-4.5 1.3-1.3 3.1-2.3 5.3-3.1 2.2-.7 4.7-1.1 7.4-1.1h14.3v4.4h-13.8c-2.6 0-4.7.3-6.4.8-1.6.5-2.9 1.2-3.7 2.1-.9.9-1.7 2-2.2 3.1-.5 1.1-.8 2.4-.8 3.7zM182.8 42.5c0 1.4.3 2.6.8 3.8.6 1.2 1.3 2.2 2.2 3.2.8.8 2.1 1.5 3.7 2.1 1.7.5 3.8.8 6.4.8H211v4.4h-15.7c-2.7 0-5.2-.4-7.4-1.1-2.2-.7-4-1.8-5.3-3.1-1.5-1.4-2.6-2.9-3.3-4.5-.7-1.5-1.1-3.4-1.1-5.5s.4-4 1.1-5.5c.7-1.5 1.8-3 3.3-4.5 1.3-1.3 3.1-2.3 5.3-3.1 2.2-.7 4.7-1.1 7.4-1.1h15.4v4.4h-14.8c-2.6 0-4.7.3-6.4.8-1.6.5-2.9 1.2-3.7 2.1-.9.9-1.7 2-2.2 3.1-.5 1.1-.8 2.4-.8 3.7zm26.2 2.2h-22v-4.4h22.1v4.4zM243.8 32.5c.7.7 1.4 1.5 1.9 2.2.6.7 1 1.5 1.4 2.3.4.8.6 1.7.8 2.6.2.9.3 1.9.3 3 0 2.1-.4 3.9-1.1 5.5-.7 1.6-1.8 3.1-3.3 4.5-1.3 1.3-3.1 2.3-5.3 3.1-2.2.8-4.7 1.1-7.4 1.1h-14.4V28.4H231c2.7 0 5.2.4 7.4 1.1 2.3.7 4.1 1.7 5.4 3zm-3.1 16.9c.9-.9 1.7-2 2.2-3.1.6-1.1.8-2.4.8-3.7 0-1.4-.3-2.6-.8-3.8-.5-1.1-1.3-2.2-2.2-3.1-.8-.8-2.1-1.5-3.7-2s-3.8-.8-6.4-.8h-9.4v19.5h9.4c2.6 0 4.8-.3 6.4-.8 1.6-.6 2.8-1.3 3.7-2.2zM255.8 42.5c0 1.4.3 2.6.8 3.8.6 1.2 1.3 2.2 2.2 3.2.8.8 2.1 1.5 3.7 2.1 1.7.5 3.8.8 6.4.8H284v4.4h-15.7c-2.7 0-5.2-.4-7.4-1.1-2.2-.7-4-1.8-5.3-3.1-1.5-1.4-2.6-2.9-3.3-4.5-.7-1.5-1.1-3.4-1.1-5.5s.4-4 1.1-5.5c.7-1.5 1.8-3 3.3-4.5 1.3-1.3 3.1-2.3 5.3-3.1 2.2-.7 4.7-1.1 7.4-1.1h15.4v4.4h-14.8c-2.6 0-4.7.3-6.4.8-1.6.5-2.9 1.2-3.7 2.1-.9.9-1.7 2-2.2 3.1-.5 1.1-.8 2.4-.8 3.7zm26.2 2.2h-22v-4.4h22.1v4.4zM310.3 56.7h-21.2v-4.4h23c.5 0 .9-.1 1.2-.1.4-.1.7-.2.9-.3.3-.2.5-.4.8-.6.8-.7 1.1-1.6 1.1-2.7s-.4-1.9-1.1-2.6c-.3-.3-.5-.5-.8-.6-.3-.2-.6-.3-.9-.3-.3-.1-.8-.1-1.2-.1h-15.2c-.7 0-1.3-.1-2-.3-.6-.1-1.3-.4-1.9-.7-.6-.3-1.2-.8-1.8-1.4-.8-.7-1.4-1.6-1.8-2.6-.4-1-.6-2.1-.6-3.1 0-1.1.2-2.1.6-3.1.4-1 1-1.9 1.8-2.6.6-.6 1.2-1.1 1.8-1.4.6-.3 1.2-.5 1.9-.7.7-.1 1.3-.2 2-.3h22.3v4.4h-21.9c-.5 0-.9.1-1.2.1l-.9.3c-.3.1-.5.4-.8.6-.7.8-1.1 1.6-1.1 2.7s.4 2 1.1 2.7c.3.3.5.5.8.6.3.2.6.3.9.4.4.1.8.1 1.2.1h15.3c.7 0 1.3.1 2 .3.7.1 1.3.4 1.9.7.6.3 1.2.8 1.8 1.4.8.8 1.4 1.7 1.8 2.7.4 1 .6 2 .6 3.1s-.2 2.1-.6 3.2c-.4 1-1 1.9-1.8 2.6-.6.6-1.2 1.1-1.8 1.4-.6.3-1.2.6-1.9.7-.6.1-1.3.2-2 .3-.9-.4-1.6-.4-2.3-.4zM324.4 44.7v-4.4h10.8v4.4h-10.8zM344 42.5c0 1.4.3 2.6.8 3.8.6 1.2 1.3 2.2 2.2 3.2.8.8 2.1 1.5 3.7 2.1 1.7.5 3.8.8 6.4.8h15.1v4.4h-15.7c-2.7 0-5.2-.4-7.4-1.1-2.2-.7-4-1.8-5.3-3.1-1.5-1.4-2.6-2.9-3.3-4.5-.7-1.5-1.1-3.4-1.1-5.5s.4-4 1.1-5.5c.7-1.5 1.8-3 3.3-4.5 1.3-1.3 3.1-2.3 5.3-3.1 2.2-.7 4.7-1.1 7.4-1.1h15.4v4.4h-14.8c-2.6 0-4.7.3-6.4.8-1.6.5-2.9 1.2-3.7 2.1-.9.9-1.7 2-2.2 3.1-.5 1.1-.8 2.4-.8 3.7zm26.2 2.2h-22.1v-4.4h22.1v4.4zM397.4 56.4c-1.4.6-2.8.9-4.3 1.1-1.5.2-2.9.1-4.4-.1-1.4-.3-2.8-.7-4.2-1.4-1.3-.7-2.6-1.6-3.7-2.7-1.5-1.5-2.6-3.1-3.3-5-.7-1.9-1.1-3.8-1.1-5.7 0-1.9.4-3.8 1.1-5.7.8-1.9 1.9-3.5 3.3-5 1.5-1.5 3.1-2.6 5-3.3 1.9-.7 3.8-1.1 5.7-1.1 1.9 0 3.8.4 5.7 1.1 1.9.8 3.5 1.9 5 3.3 1.1 1.1 2 2.4 2.7 3.7.7 1.4 1.2 2.8 1.5 4.2.3 1.4.3 2.9.2 4.4-.2 1.5-.5 2.9-1.1 4.3l-3.4-3.5c.4-1.7.4-3.5-.1-5.2-.5-1.8-1.4-3.3-2.8-4.7-1-1-2.2-1.8-3.5-2.3-1.3-.5-2.7-.8-4-.8-1.3 0-2.7.3-4 .8-1.3.5-2.5 1.3-3.5 2.4-1 1-1.8 2.2-2.3 3.5-.5 1.3-.8 2.7-.8 4 0 1.4.3 2.7.8 4 .5 1.3 1.3 2.5 2.4 3.5 1.4 1.4 2.9 2.3 4.7 2.7 1.8.5 3.5.5 5.3.1l3.1 3.4zm5 .2l3.1-3.1L393 41l-3.1 3.1 12.5 12.5z">
    </path>
</svg>