<svg xmlns="http://www.w3.org/2000/svg" viewBox="0 0 73.2 73.1">
    <path
        d="M54.031 58.827c-5.235-3.23-11.028-4.901-17.377-4.901-6.349 0-12.142 1.671-17.377 5.013 5.124 3.899 10.916 5.904 17.377 5.904 6.572-.001 12.364-2.006 17.377-6.016zm4.455-4.456c4.01-4.901 6.349-11.028 6.349-17.711-.78-.78-1.782-1.114-3.23-1.114-3.453-.446-8.911 9.468-8.689 12.81 0 2.116.78 3.119 2.896 4.456 2.118 1.225 3.009 1.671 2.674 1.559zm-38.207-6.015c.111-2.228-5.57-13.367-8.689-12.81-1.448 0-2.451.334-3.23 1.114 0 6.572 2.339 12.81 6.349 17.711-.334.111.557-.334 2.673-1.56 2.117-1.336 2.897-2.339 2.897-4.455zm16.375-18.38c-3.008 0-5.235 2.228-5.235 5.236s2.228 5.235 5.235 5.235c3.008 0 5.235-2.228 5.235-5.235s-2.228-5.236-5.235-5.236zm-27.292-.557c8.354-4.567 17.489-6.906 27.291-6.906 9.691 0 18.825 2.228 27.18 6.795-1.671-6.127-5.013-11.139-10.025-15.038-5.013-3.899-10.694-5.904-17.154-5.904-12.922 0-24.395 9.023-27.292 21.053zm27.292 43.777C15.378 73.642-.329 54.817.005 36.548-.329 19.06 14.598-.545 36.654.012 58.932-.545 73.413 19.728 73.19 36.548c.557 22.279-19.716 36.983-36.536 36.648z">
    </path>
</svg>